<svg width="136" height="28" viewBox="0 0 136 28" fill="none" xmlns="http://www.w3.org/2000/svg">
<path fillRule="evenodd" clipRule="evenodd" d="M0 16.4922V25.9986H15.2445L16.9795 24.7604L16.9799 24.7627L19.8681 22.7005H19.8686L20.0775 22.5509L20.5349 22.2244V16.4922H0ZM1.57434 17.4043H19.3713V18.8594H1.57434V17.4043ZM19.3713 19.6354H1.57434V21.0905H19.3713V19.6354Z" fill="#2F345D"/>
<path d="M20.5352 22.2227L15.2451 25.9997V22.2227H20.5352Z" fill="#436A84"/>
<rect y="3.29688" width="3.08023" height="2.91013" fill="#2F345D"/>
<rect x="3.49023" y="3.29688" width="3.08023" height="2.91013" fill="#2F345D"/>
<rect x="3.49023" width="3.08023" height="2.91013" fill="#2F345D"/>
<rect x="6.98242" width="3.08023" height="2.91013" fill="#2F345D"/>
<rect x="10.4727" y="3.29688" width="3.08023" height="2.91013" fill="#2F345D"/>
<rect x="10.4727" width="3.08023" height="2.91013" fill="#2F345D"/>
<rect x="13.9639" y="3.29688" width="3.08023" height="2.91013" fill="#2F345D"/>
<rect x="17.4551" y="3.29688" width="3.08023" height="2.91013" fill="#2F345D"/>
<rect x="17.4551" width="3.08023" height="2.91013" fill="#2F345D"/>
<rect y="6.59766" width="3.08023" height="2.91013" fill="#2F345D"/>
<rect y="9.89453" width="3.08023" height="2.91013" fill="#2F345D"/>
<rect x="3.49023" y="9.89453" width="3.08023" height="2.91013" fill="#2F345D"/>
<rect x="3.49023" y="13.1934" width="3.08023" height="2.91013" fill="#2F345D"/>
<rect x="6.98242" y="6.59766" width="3.08023" height="2.91013" fill="#2F345D"/>
<rect x="6.98242" y="9.89453" width="3.08023" height="2.91013" fill="#2F345D"/>
<rect x="6.98242" y="13.1934" width="3.08023" height="2.91013" fill="#2F345D"/>
<rect x="10.4727" y="6.59766" width="3.08023" height="2.91013" fill="#2F345D"/>
<rect x="10.4727" y="9.89453" width="3.08023" height="2.91013" fill="#2F345D"/>
<rect x="13.9639" y="6.59766" width="3.08023" height="2.91013" fill="#2F345D"/>
<rect x="13.9639" y="13.1934" width="3.08023" height="2.91013" fill="#2F345D"/>
<rect x="17.4551" y="9.89453" width="3.08023" height="2.91013" fill="#2F345D"/>
<rect x="17.4551" y="13.1934" width="3.08023" height="2.91013" fill="#2F345D"/>
<path d="M38.0839 21.8723C36.8828 21.8723 35.7117 21.6738 34.5707 21.2766C33.4296 20.8605 32.3987 20.2553 31.4778 19.461C30.577 18.6478 29.8564 17.6359 29.3159 16.4255C28.7954 15.1962 28.5352 13.7683 28.5352 12.1418C28.5352 10.1371 28.9455 8.38771 29.7663 6.89362C30.587 5.39953 31.698 4.24586 33.0993 3.43262C34.5206 2.60047 36.1121 2.1844 37.8737 2.1844C39.1348 2.1844 40.3359 2.40189 41.477 2.83688C42.6381 3.27187 43.659 3.92435 44.5398 4.79433C45.4406 5.64539 46.1513 6.70449 46.6717 7.97163C47.1922 9.21986 47.4525 10.6478 47.4525 12.2553C47.4525 13.8818 47.1922 15.3002 46.6717 16.5106C46.1513 17.721 45.4406 18.7234 44.5398 19.5177C43.659 20.2931 42.6581 20.8794 41.537 21.2766C40.436 21.6738 39.285 21.8723 38.0839 21.8723ZM38.6244 19.6028C38.9647 19.6028 39.295 19.5839 39.6153 19.5461C39.9556 19.4894 40.2959 19.4232 40.6362 19.3475C41.497 18.7801 42.1876 17.8723 42.7081 16.6241C43.2286 15.3759 43.4888 13.9669 43.4888 12.3972C43.4888 11.3759 43.3687 10.3924 43.1285 9.44681C42.8883 8.50118 42.5179 7.65012 42.0175 6.89362C41.537 6.13712 40.9165 5.53192 40.1558 5.07801C39.4151 4.62411 38.5243 4.39716 37.4833 4.39716C37.103 4.39716 36.6926 4.43499 36.2522 4.51064C35.8318 4.58629 35.4014 4.69976 34.961 4.85106C34.4806 5.22932 34.0502 5.75887 33.6699 6.43972C33.2895 7.12057 32.9892 7.91489 32.769 8.8227C32.5688 9.7305 32.4688 10.6856 32.4688 11.6879C32.4688 12.7281 32.5889 13.7305 32.8291 14.695C33.0893 15.6407 33.4697 16.4823 33.9701 17.2199C34.4706 17.9574 35.1012 18.5437 35.8619 18.9787C36.6426 19.3948 37.5634 19.6028 38.6244 19.6028Z" fill="#2F345D"/>
<path d="M50.4871 21.305V5.58865C50.4871 4.4539 50.7373 3.47045 51.2378 2.6383C51.7382 1.80615 52.3888 1.16312 53.1896 0.709221C54.0103 0.236407 54.8911 0 55.832 0C56.4325 0 57.0631 0.113475 57.7237 0.340426C58.3843 0.548464 59.0049 0.898345 59.5854 1.39007L57.5436 4.34043C56.883 3.6974 56.1523 3.2435 55.3516 2.97872C54.5508 2.69504 53.7701 2.60047 53.0094 2.69504L54.1505 8.25532L54.0003 8.93617V21.305H50.4871ZM48.5653 21.305L48.4452 20.3404C48.8856 20.1324 49.4161 19.9244 50.0367 19.7163C50.6773 19.5083 51.2178 19.357 51.6582 19.2624L51.2678 21.305H48.5653ZM53.2797 21.305L53.5499 19.1206C54.0904 19.1962 54.6509 19.3002 55.2314 19.4326C55.812 19.565 56.3124 19.7352 56.7328 19.9433L56.5827 21.305H53.2797ZM48.5053 10.4965L48.3552 9.04965C48.9757 8.74705 49.5863 8.50118 50.1868 8.31206C50.8074 8.10402 51.3979 7.93381 51.9585 7.80142L53.0695 8.8227L52.0786 10.4397L48.5053 10.4965ZM52.589 10.4965V7.97163H57.3033L57.3934 8.96454L55.9521 10.4965H52.589ZM60.9066 21.305V5.58865C60.9066 4.4539 61.1569 3.47045 61.6573 2.6383C62.1578 1.80615 62.8084 1.16312 63.6091 0.709221C64.4299 0.236407 65.3107 0 66.2515 0C66.8521 0 67.4826 0.113475 68.1432 0.340426C68.8039 0.548464 69.4244 0.898345 70.005 1.39007L67.9631 4.34043C67.3025 3.6974 66.5718 3.2435 65.7711 2.97872C64.9704 2.69504 64.1896 2.60047 63.4289 2.69504L64.57 8.25532L64.4198 8.93617V21.305H60.9066ZM58.9849 21.305L58.8648 20.3404C59.3052 20.1324 59.8357 19.9244 60.4562 19.7163C61.0968 19.5083 61.6373 19.357 62.0777 19.2624L61.6873 21.305H58.9849ZM63.6992 21.305L63.9694 19.1206C64.5099 19.1962 65.0704 19.3002 65.651 19.4326C66.2315 19.565 66.732 19.7352 67.1523 19.9433L67.0022 21.305H63.6992ZM58.9248 10.4965L58.7747 9.04965C59.3953 8.74705 60.0058 8.50118 60.6064 8.31206C61.2269 8.10402 61.8175 7.93381 62.378 7.80142L63.489 8.8227L62.4981 10.4397L58.9248 10.4965ZM63.0086 10.4965V7.97163H67.7229L67.8129 8.96454L66.3716 10.4965H63.0086Z" fill="#2F345D"/>
<path d="M71.6973 21.305V8.62411L73.8893 7.43263L75.2105 8.56738V21.305H71.6973ZM69.5353 21.305L69.4152 20.3404C69.8556 20.1324 70.3861 19.9244 71.0066 19.7163C71.6472 19.5083 72.1877 19.357 72.6281 19.2624L72.2378 21.305H69.5353ZM73.7992 21.305L74.0695 19.0638C74.63 19.1395 75.2205 19.253 75.8411 19.4043C76.4616 19.5366 76.9721 19.7163 77.3725 19.9433L77.2524 21.305H73.7992ZM69.4452 9.7305L69.175 8.3688C69.8556 8.08511 70.6163 7.86761 71.4571 7.71631C72.2978 7.5461 73.1086 7.45154 73.8893 7.43263L74.1295 8.56738L72.478 9.78724L69.4452 9.7305ZM73.6491 5.24823C73.1686 5.0591 72.6682 4.77541 72.1477 4.39716C71.6272 4.01891 71.2168 3.64066 70.9166 3.26241C71.1768 2.73286 71.5071 2.24114 71.9075 1.78723C72.3078 1.31442 72.7082 0.945626 73.1086 0.680851C73.629 0.888889 74.1295 1.20095 74.6099 1.61702C75.0904 2.01418 75.4707 2.40189 75.751 2.78014C75.5508 3.23404 75.2505 3.6974 74.8502 4.17021C74.4698 4.62411 74.0695 4.98345 73.6491 5.24823Z" fill="#2F345D"/>
<path d="M86.1318 21.7021C84.9507 21.7778 83.8898 21.6454 82.9489 21.305C82.008 20.9835 81.1973 20.5012 80.5167 19.8582C79.8361 19.1962 79.3156 18.4208 78.9552 17.5319C78.5949 16.643 78.4148 15.669 78.4148 14.6099C78.4148 13.1726 78.725 11.9149 79.3456 10.8369C79.9662 9.73995 80.8069 8.88889 81.8679 8.28369C82.9489 7.65957 84.16 7.34752 85.5012 7.34752C86.2219 7.34752 86.8925 7.44208 87.5131 7.63121C88.1336 7.80142 88.6942 8.07565 89.1946 8.4539C89.7151 8.81324 90.1655 9.26714 90.5458 9.8156L88.1136 11.8865C87.473 11.2624 86.7624 10.7329 85.9817 10.2979C85.221 9.84397 84.4503 9.54137 83.6696 9.39007C83.069 10.052 82.6286 10.7801 82.3484 11.5745C82.0881 12.3499 81.958 13.1537 81.958 13.9858C81.958 15.0071 82.1281 15.9149 82.4685 16.7092C82.8288 17.5035 83.3493 18.1371 84.0299 18.6099C84.7305 19.0638 85.5713 19.2908 86.5522 19.2908C87.0126 19.2908 87.5131 19.234 88.0536 19.1206C88.6141 18.9882 89.1746 18.7991 89.7351 18.5532L90.3056 19.8865L86.1318 21.7021Z" fill="#2F345D"/>
<path d="M93.7487 21.305V8.62411L95.9407 7.43263L97.2619 8.56738V21.305H93.7487ZM91.5867 21.305L91.4666 20.3404C91.907 20.1324 92.4375 19.9244 93.0581 19.7163C93.6986 19.5083 94.2392 19.357 94.6796 19.2624L94.2892 21.305H91.5867ZM95.8506 21.305L96.1209 19.0638C96.6814 19.1395 97.2719 19.253 97.8925 19.4043C98.5131 19.5366 99.0235 19.7163 99.4239 19.9433L99.3038 21.305H95.8506ZM91.4966 9.7305L91.2264 8.3688C91.907 8.08511 92.6677 7.86761 93.5085 7.71631C94.3492 7.5461 95.16 7.45154 95.9407 7.43263L96.1809 8.56738L94.5294 9.78724L91.4966 9.7305ZM95.7005 5.24823C95.22 5.0591 94.7196 4.77541 94.1991 4.39716C93.6786 4.01891 93.2683 3.64066 92.968 3.26241C93.2282 2.73286 93.5585 2.24114 93.9589 1.78723C94.3593 1.31442 94.7596 0.945626 95.16 0.680851C95.6805 0.888889 96.1809 1.20095 96.6614 1.61702C97.1418 2.01418 97.5221 2.40189 97.8024 2.78014C97.6022 3.23404 97.3019 3.6974 96.9016 4.17021C96.5212 4.62411 96.1209 4.98345 95.7005 5.24823Z" fill="#2F345D"/>
<path d="M102.868 21.305V8.62411L105.06 7.43263L106.382 8.62411V21.305H102.868ZM112.087 21.305V13.0213C112.087 11.9622 111.897 11.2057 111.516 10.7518C111.156 10.2979 110.686 10.0804 110.105 10.0993C109.705 10.0993 109.234 10.2128 108.694 10.4397C108.153 10.6478 107.603 10.9125 107.042 11.234C106.482 11.5556 105.961 11.8865 105.481 12.227L105.06 11.2057C105.961 10.5248 106.852 9.91962 107.733 9.39007C108.614 8.84161 109.424 8.40662 110.165 8.08511C110.906 7.74468 111.516 7.53664 111.997 7.46099C112.377 7.49882 112.767 7.61229 113.168 7.80142C113.588 7.97163 113.979 8.19858 114.339 8.48227C114.699 8.74705 114.979 9.0591 115.18 9.41844C115.28 9.58865 115.36 9.80615 115.42 10.0709C115.48 10.3357 115.52 10.6856 115.54 11.1206C115.58 11.5556 115.6 12.1229 115.6 12.8227V21.305H112.087ZM100.616 9.7305L100.346 8.3688C101.027 8.08511 101.787 7.86761 102.628 7.71631C103.469 7.5461 104.28 7.45154 105.06 7.43263L105.301 8.56738L103.649 9.78724L100.616 9.7305ZM100.826 21.305L100.706 20.3404C101.147 20.1324 101.677 19.9244 102.298 19.7163C102.938 19.5083 103.479 19.357 103.919 19.2624L103.529 21.305H100.826ZM104.82 21.305L105.09 19.0638C105.631 19.1395 106.191 19.253 106.772 19.4043C107.352 19.5366 107.853 19.7163 108.273 19.9433L108.123 21.305H104.82ZM110.465 21.305L110.345 20.3404C110.786 20.1324 111.316 19.9244 111.937 19.7163C112.577 19.5083 113.118 19.357 113.558 19.2624L113.168 21.305H110.465ZM114.039 21.305L114.309 19.0638C114.869 19.1395 115.47 19.253 116.11 19.4043C116.771 19.5366 117.302 19.7163 117.702 19.9433L117.552 21.305H114.039Z" fill="#2F345D"/>
<path d="M124.393 28C123.633 28 122.892 27.9149 122.171 27.7447C121.471 27.5934 120.83 27.3475 120.25 27.0071C119.689 26.6667 119.249 26.2317 118.928 25.7021C118.608 25.1915 118.458 24.5768 118.478 23.8582L123.102 19.8865H125.715C124.974 20.2648 124.283 20.6714 123.643 21.1064C123.002 21.5414 122.472 21.9764 122.051 22.4114C121.651 22.8653 121.451 23.2813 121.451 23.6596C121.451 24.1702 121.771 24.5674 122.412 24.8511C123.052 25.1348 123.843 25.2766 124.784 25.2766C125.544 25.2766 126.315 25.182 127.096 24.9929C127.897 24.8038 128.617 24.5106 129.258 24.1135C129.918 23.7352 130.429 23.2624 130.789 22.695C130.129 22.3735 129.208 22.0709 128.027 21.7872C126.846 21.5225 125.534 21.305 124.093 21.1348C122.672 20.9456 121.24 20.8322 119.799 20.7943L119.229 19.2057C119.649 18.7518 120.119 18.2979 120.64 17.844C121.18 17.3712 121.731 16.9456 122.291 16.5674C122.852 16.1891 123.382 15.8865 123.883 15.6596L125.474 16.1418C124.934 16.4634 124.393 16.8322 123.853 17.2482C123.332 17.6454 122.902 18.0142 122.562 18.3546C123.322 18.3735 124.163 18.4303 125.084 18.5248C126.005 18.6194 126.936 18.7612 127.877 18.9504C128.817 19.1206 129.728 19.3097 130.609 19.5177C131.49 19.7258 132.271 19.9433 132.951 20.1702C133.211 21.0591 133.241 21.8913 133.041 22.6667C132.861 23.4421 132.501 24.1608 131.96 24.8227C131.42 25.4846 130.749 26.052 129.948 26.5248C129.148 26.9976 128.267 27.357 127.306 27.6028C126.365 27.8676 125.394 28 124.393 28ZM125.414 16.9078C124.253 16.9078 123.182 16.7187 122.201 16.3404C121.22 15.9433 120.43 15.3853 119.829 14.6667C119.229 13.9291 118.928 13.0686 118.928 12.0851C118.928 11.0827 119.229 10.2128 119.829 9.47518C120.43 8.73759 121.23 8.17021 122.231 7.77305C123.232 7.35698 124.303 7.14894 125.444 7.14894C126.605 7.14894 127.676 7.34752 128.657 7.74468C129.638 8.14184 130.429 8.70922 131.029 9.44681C131.65 10.1844 131.96 11.0638 131.96 12.0851C131.96 13.0875 131.65 13.9574 131.029 14.695C130.409 15.4137 129.598 15.9622 128.597 16.3404C127.616 16.7187 126.555 16.9078 125.414 16.9078ZM127.126 14.9787C127.626 14.6194 127.967 14.2033 128.147 13.7305C128.327 13.2388 128.417 12.766 128.417 12.3121C128.417 11.7636 128.287 11.2435 128.027 10.7518C127.766 10.2411 127.406 9.82506 126.946 9.50355C126.505 9.16312 125.975 8.974 125.354 8.93617C124.734 8.87943 124.063 9.01182 123.342 9.33333C123.022 9.69267 122.792 10.0993 122.652 10.5532C122.512 11.0071 122.442 11.461 122.442 11.9149C122.442 12.7092 122.622 13.3995 122.982 13.9858C123.362 14.5532 123.903 14.9409 124.604 15.1489C125.304 15.357 126.145 15.3002 127.126 14.9787ZM129.108 10.5816C129.068 9.95745 129.138 9.37116 129.318 8.8227C129.498 8.27423 129.768 7.79196 130.129 7.37589C130.489 6.9409 130.929 6.58156 131.45 6.29787C131.97 6.01418 132.571 5.83452 133.251 5.75887L133.912 9.04965C132.331 8.974 130.959 9.3617 129.798 10.2128L129.108 10.5816Z" fill="#2F345D"/>
</svg>
